<?xml version="1.0" encoding="UTF-8" standalone="no"?>
<!DOCTYPE svg PUBLIC "-//W3C//DTD SVG 1.1//EN"
 "http://www.w3.org/Graphics/SVG/1.1/DTD/svg11.dtd">
<!-- Generated by graphviz version 2.40.1 (20161225.0304)
 -->
<!-- Title: G Pages: 1 -->
<svg width="123pt" height="489pt"
 viewBox="0.00 0.00 123.00 488.86" xmlns="http://www.w3.org/2000/svg" xmlns:xlink="http://www.w3.org/1999/xlink">
<g id="graph0" class="graph" transform="scale(1 1) rotate(0) translate(4 484.865)">
<title>G</title>
<polygon fill="#ffffff" stroke="transparent" points="-4,4 -4,-484.865 118.9973,-484.865 118.9973,4 -4,4"/>
<!-- Entry -->
<g id="node1" class="node">
<title>Entry</title>
<text text-anchor="middle" x="62.5604" y="-458.665" font-family="Times,serif" font-size="14.00" fill="#000000">Entry</text>
</g>
<!-- Home -->
<g id="node3" class="node">
<title>Home</title>
<ellipse fill="none" stroke="#000000" cx="62.5604" cy="-373.2298" rx="34.7709" ry="34.7709"/>
<text text-anchor="middle" x="62.5604" y="-369.0298" font-family="Times,serif" font-size="14.00" fill="#000000">Home</text>
</g>
<!-- Entry&#45;&gt;Home -->
<g id="edge1" class="edge">
<title>Entry&#45;&gt;Home</title>
<path fill="none" stroke="#000000" d="M62.5604,-444.726C62.5604,-436.9871 62.5604,-427.5796 62.5604,-418.1652"/>
<polygon fill="#000000" stroke="#000000" points="66.0605,-418.0254 62.5604,-408.0254 59.0605,-418.0254 66.0605,-418.0254"/>
</g>
<!-- Exit -->
<g id="node2" class="node">
<title>Exit</title>
<text text-anchor="middle" x="68.5604" y="-13.8" font-family="Times,serif" font-size="14.00" fill="#000000">Exit</text>
</g>
<!-- Lister -->
<g id="node4" class="node">
<title>Lister</title>
<ellipse fill="none" stroke="#000000" cx="33.5604" cy="-252.2342" rx="33.6208" ry="33.6208"/>
<text text-anchor="middle" x="33.5604" y="-248.0342" font-family="Times,serif" font-size="14.00" fill="#000000">Lister</text>
</g>
<!-- Home&#45;&gt;Lister -->
<g id="edge2" class="edge">
<title>Home&#45;&gt;Lister</title>
<path fill="none" stroke="#000000" d="M35.723,-350.9704C27.4116,-342.4339 19.2894,-331.9822 14.8998,-320.5946 11.353,-311.3934 11.8567,-301.2523 14.2222,-291.6619"/>
<polygon fill="#000000" stroke="#000000" points="17.6214,-292.5185 17.2694,-281.9295 10.9412,-290.4269 17.6214,-292.5185"/>
<text text-anchor="middle" x="28.3907" y="-307.9946" font-family="Times,serif" font-size="14.00" fill="#000000">75%</text>
</g>
<!-- Abandon -->
<g id="node5" class="node">
<title>Abandon</title>
<ellipse fill="none" stroke="#000000" cx="68.5604" cy="-119.4369" rx="46.374" ry="46.374"/>
<text text-anchor="middle" x="68.5604" y="-115.2369" font-family="Times,serif" font-size="14.00" fill="#000000">Abandon</text>
</g>
<!-- Home&#45;&gt;Abandon -->
<g id="edge3" class="edge">
<title>Home&#45;&gt;Abandon</title>
<path fill="none" stroke="#000000" d="M75.4589,-340.8025C77.563,-334.2138 79.4238,-327.2587 80.5604,-320.5946 90.7765,-260.6931 87.5989,-244.3395 81.5604,-183.8739 81.2733,-180.9994 80.9159,-178.0634 80.5049,-175.1061"/>
<polygon fill="#000000" stroke="#000000" points="83.9316,-174.3655 78.9252,-165.0281 77.0161,-175.4495 83.9316,-174.3655"/>
<text text-anchor="middle" x="100.3907" y="-248.0342" font-family="Times,serif" font-size="14.00" fill="#000000">25%</text>
</g>
<!-- Lister&#45;&gt;Home -->
<g id="edge4" class="edge">
<title>Lister&#45;&gt;Home</title>
<path fill="none" stroke="#000000" d="M41.395,-284.9226C44.6894,-298.6675 48.5704,-314.8602 52.1034,-329.6007"/>
<polygon fill="#000000" stroke="#000000" points="48.7478,-330.617 54.4822,-339.5258 55.555,-328.9854 48.7478,-330.617"/>
<text text-anchor="middle" x="63.3907" y="-307.9946" font-family="Times,serif" font-size="14.00" fill="#000000">15%</text>
</g>
<!-- Lister&#45;&gt;Abandon -->
<g id="edge5" class="edge">
<title>Lister&#45;&gt;Abandon</title>
<path fill="none" stroke="#000000" d="M42.1223,-219.7484C45.7248,-206.0798 50.018,-189.7904 54.0862,-174.3548"/>
<polygon fill="#000000" stroke="#000000" points="57.5534,-174.9325 56.7176,-164.3707 50.7846,-173.1485 57.5534,-174.9325"/>
<text text-anchor="middle" x="64.3907" y="-188.0739" font-family="Times,serif" font-size="14.00" fill="#000000">85%</text>
</g>
<!-- Abandon&#45;&gt;Exit -->
<g id="edge6" class="edge">
<title>Abandon&#45;&gt;Exit</title>
<path fill="none" stroke="#000000" d="M68.5604,-72.8748C68.5604,-63.8939 68.5604,-54.738 68.5604,-46.5437"/>
<polygon fill="#000000" stroke="#000000" points="72.0605,-46.4209 68.5604,-36.4209 65.0605,-46.421 72.0605,-46.4209"/>
</g>
</g>
</svg>
