<?xml version="1.0" encoding="UTF-8" standalone="no"?>
<!DOCTYPE svg PUBLIC "-//W3C//DTD SVG 1.1//EN"
 "http://www.w3.org/Graphics/SVG/1.1/DTD/svg11.dtd">
<!-- Generated by graphviz version 2.38.0 (20140413.2041)
 -->
<!-- Title: G Pages: 1 -->
<svg width="219pt" height="353pt"
 viewBox="0.00 0.00 219.44 353.19" xmlns="http://www.w3.org/2000/svg" xmlns:xlink="http://www.w3.org/1999/xlink">
<g id="graph0" class="graph" transform="scale(1 1) rotate(0) translate(4 349.187)">
<title>G</title>
<polygon fill="white" stroke="none" points="-4,4 -4,-349.187 215.443,-349.187 215.443,4 -4,4"/>
<!-- Entry -->
<g id="node1" class="node"><title>Entry</title>
<text text-anchor="middle" x="81.3968" y="-323.487" font-family="Times New Roman,serif" font-size="14.00">Entry</text>
</g>
<!-- Page A -->
<g id="node3" class="node"><title>Page A</title>
<ellipse fill="none" stroke="black" cx="81.3968" cy="-235.14" rx="37.0935" ry="37.0935"/>
<text text-anchor="middle" x="81.3968" y="-231.44" font-family="Times New Roman,serif" font-size="14.00">Page A</text>
</g>
<!-- Entry&#45;&gt;Page A -->
<g id="edge1" class="edge"><title>Entry&#45;&gt;Page A</title>
<path fill="none" stroke="black" d="M81.3968,-308.825C81.3968,-301.244 81.3968,-291.954 81.3968,-282.582"/>
<polygon fill="black" stroke="black" points="84.8969,-282.457 81.3968,-272.457 77.8969,-282.457 84.8969,-282.457"/>
</g>
<!-- Exit -->
<g id="node2" class="node"><title>Exit</title>
<text text-anchor="middle" x="89.3968" y="-14.3" font-family="Times New Roman,serif" font-size="14.00">Exit</text>
</g>
<!-- Page A&#45;&gt;Page A -->
<g id="edge2" class="edge"><title>Page A&#45;&gt;Page A</title>
<path fill="none" stroke="black" d="M117.134,-245.25C127.972,-244.996 136.443,-241.626 136.443,-235.14 136.443,-230.883 132.795,-227.969 127.224,-226.397"/>
<polygon fill="black" stroke="black" points="127.513,-222.904 117.134,-225.031 126.574,-229.841 127.513,-222.904"/>
<text text-anchor="middle" x="173.943" y="-231.44" font-family="Times New Roman,serif" font-size="14.00">50% Event A</text>
</g>
<!-- Page B -->
<g id="node4" class="node"><title>Page B</title>
<ellipse fill="none" stroke="black" cx="36.3968" cy="-110.047" rx="36.2938" ry="36.2938"/>
<text text-anchor="middle" x="36.3968" y="-106.347" font-family="Times New Roman,serif" font-size="14.00">Page B</text>
</g>
<!-- Page A&#45;&gt;Page B -->
<g id="edge3" class="edge"><title>Page A&#45;&gt;Page B</title>
<path fill="none" stroke="black" d="M68.9812,-200.178C63.7741,-185.935 57.6585,-169.206 52.1404,-154.112"/>
<polygon fill="black" stroke="black" points="55.337,-152.662 48.6161,-144.472 48.7625,-155.066 55.337,-152.662"/>
<text text-anchor="middle" x="75.3968" y="-168.893" font-family="Times New Roman,serif" font-size="14.00">50%</text>
</g>
<!-- Page C -->
<g id="node5" class="node"><title>Page C</title>
<ellipse fill="none" stroke="black" cx="127.397" cy="-110.047" rx="37.0935" ry="37.0935"/>
<text text-anchor="middle" x="127.397" y="-106.347" font-family="Times New Roman,serif" font-size="14.00">Page C</text>
</g>
<!-- Page A&#45;&gt;Page C -->
<g id="edge4" class="edge"><title>Page A&#45;&gt;Page C</title>
<path fill="none" stroke="black" d="M94.0882,-200.178C99.3674,-186.052 105.56,-169.48 111.164,-154.484"/>
<polygon fill="black" stroke="black" points="114.525,-155.49 114.747,-144.898 107.968,-153.04 114.525,-155.49"/>
<text text-anchor="middle" x="119.397" y="-168.893" font-family="Times New Roman,serif" font-size="14.00">50%</text>
</g>
<!-- Page B&#45;&gt;Exit -->
<g id="edge5" class="edge"><title>Page B&#45;&gt;Exit</title>
<path fill="none" stroke="black" d="M54.4881,-78.3096C60.8896,-67.4336 68.0213,-55.3168 74.1616,-44.8845"/>
<polygon fill="black" stroke="black" points="77.203,-46.6172 79.2591,-36.2238 71.1703,-43.0665 77.203,-46.6172"/>
</g>
<!-- Page C&#45;&gt;Exit -->
<g id="edge6" class="edge"><title>Page C&#45;&gt;Exit</title>
<path fill="none" stroke="black" d="M113.247,-75.5166C109.05,-65.5707 104.514,-54.8229 100.536,-45.3972"/>
<polygon fill="black" stroke="black" points="103.744,-43.9948 96.6309,-36.1424 97.2944,-46.7165 103.744,-43.9948"/>
</g>
</g>
</svg>
